<svg version="1.1" id="Layer_1" xmlns="http://www.w3.org/2000/svg" xmlns:xlink="http://www.w3.org/1999/xlink" x="0px" y="0px"
	 width="100%" viewBox="0 0 896 912" enable-background="new 0 0 896 912" xml:space="preserve">
<path fill="#000000" opacity="1.000000" stroke="none" 
	d="
M647.273804,124.798225 
	C652.842957,138.403809 656.318481,152.196198 659.605164,166.109756 
	C662.883240,179.987106 664.290894,193.954605 664.173035,208.115494 
	C664.103760,216.430801 663.249634,224.704422 661.825562,232.928223 
	C660.770752,239.019363 660.660645,245.171829 662.259277,251.260590 
	C664.593933,260.153046 662.255310,268.816193 660.532959,277.416351 
	C658.776123,286.188477 656.362366,294.829590 652.783508,303.081940 
	C652.007080,304.872314 652.636414,306.217346 653.764709,307.633575 
	C660.407837,315.971924 666.543457,324.670593 672.567261,333.471954 
	C676.277893,338.893524 682.485657,341.739990 687.690002,345.592194 
	C689.931519,347.251282 692.592834,348.406860 694.447571,351.443146 
	C689.136292,354.860016 683.435974,352.347809 677.260376,352.906372 
	C690.572571,371.703003 705.558655,388.170349 723.013306,402.889648 
	C718.620972,408.144135 713.019165,404.417816 707.605713,405.189087 
	C715.226868,416.054230 724.312134,425.195953 733.341187,435.279083 
	C726.995972,438.592957 720.994873,436.393768 714.007874,436.803162 
	C722.907715,458.734497 732.770935,479.474457 746.685486,499.327362 
	C735.910645,500.454803 726.591003,497.741241 716.856079,495.743835 
	C716.496216,502.142670 717.273621,508.009247 717.671448,513.616638 
	C714.563416,515.193970 712.901428,512.155212 709.760925,512.654602 
	C708.320190,531.164978 706.128662,549.762390 703.299316,569.862854 
	C697.154968,562.704956 693.379333,555.844482 688.809570,548.023315 
	C686.028381,556.290344 683.657654,563.588379 681.115967,570.826294 
	C678.201782,579.124756 675.116821,587.363159 672.150269,595.643494 
	C671.467102,597.550476 670.895508,599.457214 668.002197,599.760193 
	C665.014893,591.134888 664.337585,581.693726 658.644653,572.320984 
	C641.743835,613.492798 619.561279,650.032410 591.946106,683.001343 
	C589.126038,682.255554 590.464783,679.904602 588.809265,678.089172 
	C568.994751,705.294861 544.989136,728.070007 517.772156,747.665771 
	C540.031433,702.802368 570.107849,662.849243 594.809692,618.005554 
	C600.501526,628.085693 600.569336,637.812805 602.889587,648.050659 
	C605.969299,643.488220 609.037048,639.527527 611.475281,635.211243 
	C616.716919,625.932251 621.106018,616.295837 624.194885,606.000000 
	C625.821777,600.577454 624.984741,595.997986 623.038452,591.111084 
	C620.558044,584.883118 616.978149,579.476868 612.102173,574.402649 
	C608.553772,579.381287 609.299866,585.055786 607.387024,589.926208 
	C606.361572,592.537109 606.052368,595.419983 605.194214,598.108093 
	C603.945923,602.018066 602.104370,602.357544 599.256348,599.226013 
	C596.682251,596.395630 594.518188,593.175171 591.408936,590.859619 
	C588.452393,588.657715 586.885437,589.106445 586.066650,593.076782 
	C583.310669,606.440613 579.763000,619.584290 572.893311,631.545776 
	C570.178650,636.272461 568.975464,636.215942 566.224548,631.577393 
	C563.849182,627.572083 563.849182,627.572083 560.266663,625.125427 
	C556.709167,648.799927 549.700989,671.088928 541.463013,693.048767 
	C533.116150,715.299133 520.045776,734.692688 507.024353,754.091248 
	C504.655548,752.847656 505.202179,751.857727 505.382843,750.908142 
	C505.529816,750.135498 505.577179,749.343872 505.690155,748.377441 
	C503.280579,748.653687 502.421356,750.405212 501.381958,751.763672 
	C488.941895,768.021545 476.512695,784.288208 464.184998,800.631226 
	C461.687592,803.942139 459.503174,807.509033 457.393311,811.086975 
	C454.995270,815.153687 453.947510,815.238770 451.354736,811.157654 
	C437.841003,789.886536 421.331970,770.851624 406.224304,750.770813 
	C405.275360,749.509399 404.299316,748.068115 402.472900,747.540771 
	C401.423523,750.000916 404.987122,752.111267 402.162384,755.642761 
	C388.301727,735.847839 376.940979,715.312012 367.841644,693.457764 
	C358.698914,671.499268 352.238098,648.781311 348.750824,624.609314 
	C345.023315,626.888733 343.734283,630.061340 341.777985,632.626038 
	C338.990509,636.280273 337.920319,636.316101 335.873291,632.374451 
	C329.778992,620.639832 325.745697,608.217102 323.636261,595.164429 
	C323.290588,593.025574 323.032227,590.489014 320.795929,589.698914 
	C318.576385,588.914795 317.333160,591.245728 315.946228,592.570374 
	C314.022095,594.408142 312.244568,596.402649 310.448181,598.370056 
	C307.004791,602.141235 305.670563,601.752136 303.794525,596.749023 
	C301.624634,590.962219 300.342468,584.945190 298.839386,578.983521 
	C298.479095,577.554382 298.658966,575.777893 296.727295,575.449646 
	C294.947540,575.147217 294.007690,576.615417 293.201752,577.814880 
	C289.195892,583.776489 285.729095,590.002686 284.124390,597.110596 
	C282.666626,603.567749 285.552948,609.309509 287.658936,614.910522 
	C291.699371,625.656250 296.987213,635.884583 303.407257,645.467590 
	C303.974487,646.314270 304.572540,647.097839 306.149384,647.110718 
	C308.112610,641.248169 307.273987,634.732849 309.516205,628.830811 
	C310.717773,625.668213 310.066193,620.619263 313.683899,619.928650 
	C317.256409,619.246765 317.452423,624.319153 318.954803,626.857117 
	C335.237762,654.363953 352.478638,681.267944 369.588989,708.259094 
	C377.423492,720.617737 384.512360,733.449158 391.930786,746.071228 
	C392.357300,746.796936 392.645844,747.574097 391.544159,749.430420 
	C377.164520,740.091614 365.218994,728.101135 353.169189,716.217529 
	C341.063843,704.279114 329.689392,691.724670 320.263367,677.271362 
	C318.338135,679.174438 320.342804,681.654785 317.455322,683.763000 
	C289.195526,650.459229 267.843719,612.948364 250.119980,572.067200 
	C244.360260,581.095337 243.718719,590.964233 239.010468,599.584717 
	C231.176163,583.580261 226.014252,566.793945 220.859909,549.158997 
	C214.543579,554.864807 212.495453,562.929504 206.758118,568.788696 
	C202.816254,550.293152 200.474625,531.750000 199.410049,513.051575 
	C196.565903,511.734619 194.769897,515.107300 191.929001,514.249207 
	C189.818436,510.284576 191.124252,505.900909 191.098282,501.705719 
	C191.071808,497.429565 190.249542,495.722717 185.295456,496.889191 
	C179.523468,498.248230 173.666245,499.935211 167.569183,499.389771 
	C166.131287,499.261139 164.548233,499.853516 163.056992,498.214905 
	C176.100983,479.710938 184.876221,458.983398 194.026154,438.104523 
	C187.405975,435.871674 181.300323,438.626373 174.835266,435.357605 
	C184.173508,425.933624 193.001175,416.725677 200.302185,405.619476 
	C196.473251,404.507111 193.341553,405.205811 190.249207,405.155548 
	C188.797760,405.131958 186.974518,405.570251 186.304749,403.810455 
	C185.604630,401.970978 187.377853,401.226013 188.497559,400.337646 
	C204.142441,387.925079 216.659546,372.604004 228.839966,356.972198 
	C229.321991,356.353577 229.878891,355.623566 229.460571,354.565918 
	C224.944382,352.688812 219.412781,354.667847 214.984055,351.738556 
	C215.784012,348.767822 218.089233,348.094879 219.824844,347.036652 
	C230.465134,340.548798 237.862930,331.015106 244.841583,321.023499 
	C247.604126,317.068237 250.553574,313.234161 253.582077,309.477234 
	C255.811752,306.711273 256.092285,304.152740 254.643494,300.764557 
	C248.357208,286.063385 245.027557,270.618408 246.066559,254.659027 
	C246.630951,245.989746 247.768555,237.208038 246.330978,228.774841 
	C244.853989,220.110489 245.087631,211.551788 244.803268,202.929108 
	C244.221146,185.277420 247.767303,168.153046 252.486755,151.379013 
	C258.811066,128.900970 268.096100,107.559944 280.256958,87.539726 
	C283.278839,82.564842 284.334656,82.358978 287.249084,87.301338 
	C298.750763,106.806107 312.840210,124.329689 329.019409,140.019302 
	C343.839020,154.390442 359.485016,167.925919 377.752289,177.971832 
	C379.315277,178.831390 380.979584,179.506760 383.216400,180.559204 
	C382.653839,178.177795 382.249908,176.467896 381.712708,174.193756 
	C387.531006,172.792908 392.538849,175.727753 397.687958,176.600616 
	C410.596313,178.788849 423.475006,181.110550 436.403473,183.195419 
	C450.906952,185.534256 465.007538,183.809601 479.167999,182.537659 
	C490.191620,181.547470 501.103180,178.964935 512.006897,176.717438 
	C516.947510,175.699066 521.883606,172.945892 527.053711,174.343765 
	C528.091492,176.801712 525.923157,178.032867 525.832153,180.243378 
	C535.345093,176.897766 542.453857,170.435226 550.110046,165.022079 
	C579.340698,144.355179 602.925842,118.358376 621.714539,87.929680 
	C625.315125,82.098419 626.591980,82.251953 629.757568,88.531067 
	C635.744141,100.405998 642.289673,112.012024 647.273804,124.798225 
M460.296234,202.132751 
	C446.899414,203.019485 433.943451,200.358673 420.269775,196.683701 
	C423.427795,201.867615 428.964417,204.169159 430.315002,209.568649 
	C427.316650,213.082321 422.981903,209.135086 419.740997,211.850967 
	C421.002625,216.417526 424.684570,219.604874 426.701202,223.737350 
	C427.764923,225.917191 427.943024,227.487000 426.451477,229.637054 
	C420.270020,238.547882 413.718750,247.129440 406.127747,254.905197 
	C399.651855,261.538727 392.531860,267.122894 383.556763,270.025726 
	C378.337708,271.713745 373.091919,273.372162 368.009827,275.420197 
	C355.381622,280.509216 342.175293,284.583069 331.379944,293.290833 
	C313.624298,307.612946 296.025269,322.132935 278.541412,336.785767 
	C274.003937,340.588531 268.829163,343.808350 264.487610,349.766235 
	C274.211517,346.166687 282.770172,343.026459 291.303589,339.819122 
	C293.318176,339.061951 295.252747,338.005280 297.997223,340.935974 
	C271.797821,356.653656 243.711487,368.563324 220.133957,388.303711 
	C222.033005,388.973206 223.231277,388.467346 224.511597,388.038147 
	C234.453629,384.705170 244.548630,382.035950 255.066956,381.302368 
	C256.567169,381.197754 258.247681,380.880341 259.019867,382.573486 
	C259.697021,384.058228 258.527466,385.151245 257.517792,385.963745 
	C251.163254,391.077118 246.411407,397.865417 239.642105,402.601044 
	C235.432526,405.545990 231.826187,409.353271 226.976746,413.631287 
	C241.396576,410.617767 321.480316,385.178650 325.138733,382.446686 
	C321.563690,380.176300 316.885071,379.657043 314.611755,375.670898 
	C316.453552,373.873505 318.496521,374.183563 320.463715,374.250397 
	C342.138580,374.986420 361.696533,382.362061 380.134308,393.268829 
	C382.214783,394.499512 384.203705,396.230438 387.771057,395.027557 
	C383.908813,387.818054 382.289307,379.587677 374.035065,375.580658 
	C370.906921,374.062073 367.962189,372.109436 365.090942,370.127075 
	C347.069458,357.684875 328.380524,346.619507 306.809814,341.385498 
	C305.485077,341.064087 304.021698,340.744080 303.867889,339.143433 
	C303.662506,337.005432 305.568604,337.128021 306.920715,336.618469 
	C315.333740,333.447815 324.078186,335.168243 332.672638,334.895905 
	C345.150635,334.500488 356.533081,338.574066 367.240112,344.525085 
	C379.999786,351.617035 389.297333,362.619904 398.734802,373.399506 
	C399.921753,374.755219 400.948303,376.342010 400.139374,378.305084 
	C399.779327,378.520447 399.518646,378.757996 399.214935,378.844452 
	C397.594330,379.305817 396.386810,378.086761 394.958038,377.767548 
	C393.187286,377.371948 391.149261,376.662872 389.812164,378.296906 
	C388.709534,379.644470 389.254333,381.465881 389.754486,383.093964 
	C394.055267,397.093719 399.101440,410.814301 405.813293,423.846130 
	C408.349121,428.769775 410.360779,434.062134 414.267334,438.687012 
	C415.100922,435.940521 415.169495,433.488708 414.493042,431.402618 
	C410.907623,420.345520 413.165314,410.779968 420.083801,401.484375 
	C425.573853,394.108124 425.540680,385.865509 420.632721,377.669586 
	C417.546692,372.516052 414.336365,367.480408 410.864655,362.586182 
	C409.836914,361.137299 407.938660,359.734009 409.170288,357.119659 
	C414.775116,359.134857 417.090271,365.477051 423.113525,367.443848 
	C418.908600,351.289368 412.755493,336.689148 402.785278,323.857605 
	C405.103088,322.546783 406.308929,323.398682 407.254730,324.225342 
	C415.286346,331.245453 423.238861,338.386169 428.511841,347.855621 
	C437.848846,364.623505 444.045715,382.691040 450.333984,400.733643 
	C451.557617,404.244629 451.638550,408.508057 455.304535,411.474274 
	C456.241852,409.414734 457.119965,407.814484 457.718933,406.115753 
	C461.470154,395.476562 464.923431,384.726105 468.920197,374.181091 
	C476.129913,355.159119 485.445679,337.449310 501.960510,324.591614 
	C503.806702,323.154266 505.358490,320.947601 509.283783,321.726471 
	C498.249664,335.792664 490.362915,350.719727 486.229340,368.334381 
	C492.497284,365.509430 495.257385,359.760223 500.775818,356.891266 
	C501.688934,360.605408 499.247894,362.354980 497.939758,364.456604 
	C495.212891,368.837555 492.393982,373.171356 489.406708,377.378113 
	C481.925293,387.913635 486.056763,397.472382 492.290497,406.374725 
	C496.747772,412.740112 497.125244,419.219910 495.614929,426.313324 
	C494.833435,429.983887 494.667023,433.669800 495.511597,437.806274 
	C505.443237,425.388580 519.814392,389.560883 519.676636,377.980011 
	C517.561279,377.150696 515.430359,378.112091 513.306274,378.019226 
	C512.157166,377.968964 510.897552,378.232971 510.211151,376.959351 
	C509.538483,375.711273 510.206757,374.663483 510.973969,373.785767 
	C519.745667,363.750702 528.380127,353.611816 539.830139,346.340088 
	C557.451294,335.149078 576.871094,333.372009 596.939514,335.246857 
	C600.267578,335.557831 604.068298,335.996521 606.711548,338.676392 
	C605.884277,341.236877 603.871948,341.265167 602.165833,341.747864 
	C595.458862,343.645416 588.839050,345.675568 582.412659,348.515289 
	C566.328247,355.622833 552.303467,366.230377 536.988647,374.581360 
	C527.929199,379.521393 524.830444,387.401093 521.695129,397.111725 
	C524.001770,395.947479 525.386169,395.430878 526.570374,394.621368 
	C534.165894,389.429108 542.320557,385.459229 550.964844,382.248627 
	C563.369629,377.641418 575.980286,374.363342 589.258606,374.061523 
	C591.277588,374.015625 593.683838,373.301239 594.866516,376.144257 
	C592.917969,379.839905 587.764221,379.715515 585.539062,383.981995 
	C617.572571,394.853607 650.224365,402.750305 681.778809,414.255585 
	C671.418030,403.364105 659.858398,394.091644 650.072327,382.668701 
	C665.100586,381.367920 678.554810,387.207184 692.671509,390.044312 
	C679.622192,381.629944 667.644287,371.850586 654.088928,364.337738 
	C640.745911,356.942566 626.593445,350.896210 614.386230,341.264099 
	C625.217834,341.253326 634.184021,347.761108 645.914734,349.655029 
	C642.548340,346.653748 640.295715,344.505981 637.899841,342.531982 
	C622.614319,329.938019 607.182556,317.518860 592.027222,304.770721 
	C579.993103,294.648102 567.604126,285.220734 552.599548,279.844727 
	C545.562439,277.323364 538.649658,274.416321 531.521057,272.196045 
	C509.174835,265.235992 495.770966,248.176422 483.317017,230.004913 
	C481.266083,227.012405 482.166565,223.894440 483.905151,221.078247 
	C485.794708,218.017502 487.894379,215.086472 489.905823,212.093872 
	C488.157288,210.585800 486.434540,211.254501 484.847107,211.112778 
	C483.083893,210.955383 480.852051,211.708755 479.883209,209.701019 
	C478.814270,207.485809 480.740936,205.959259 482.018463,204.528900 
	C484.235626,202.046539 486.652313,199.742401 489.964294,196.365341 
	C479.492828,199.233963 470.405945,200.885193 460.296234,202.132751 
M471.748016,622.751831 
	C479.789581,631.134216 496.526367,631.953186 506.534851,623.875732 
	C517.585388,614.957275 523.123840,603.276611 525.947266,589.528870 
	C528.015015,579.460388 527.367004,569.320496 528.732300,559.266357 
	C530.953430,542.909851 536.231628,528.242065 549.258240,517.332825 
	C553.720154,513.596130 558.204102,509.778046 564.444763,506.184875 
	C563.951904,513.752563 559.302368,518.700439 559.492920,525.639099 
	C565.923401,522.620483 570.858276,518.689819 576.051575,515.235413 
	C580.445496,512.312744 585.154724,509.691956 587.472839,504.406006 
	C588.537903,501.977509 590.914246,501.488373 593.474976,502.267151 
	C598.246460,503.718262 603.008362,505.208221 607.815369,506.532837 
	C612.493835,507.821991 616.963196,509.994537 622.741455,510.544800 
	C619.405762,500.120972 612.103210,492.939697 606.399963,484.165314 
	C616.048889,482.466827 623.289429,485.731049 629.684082,491.105347 
	C649.088318,507.413239 658.788513,529.526062 666.301392,552.921875 
	C667.475220,556.577393 667.687073,560.614319 669.988281,563.976868 
	C671.788574,562.871460 672.270325,561.376709 672.450012,559.938782 
	C673.605530,550.695435 675.189392,541.463196 675.622070,532.180237 
	C676.752258,507.932220 672.839233,484.190552 667.348328,460.666626 
	C666.939880,458.916992 666.277344,457.096497 668.576233,455.301270 
	C677.641296,461.504822 686.816650,467.783783 695.991943,474.062744 
	C691.200073,456.703979 682.492493,441.793701 673.602661,426.967957 
	C668.699646,418.791077 660.220215,417.777832 651.111633,415.108826 
	C653.694824,419.232910 657.567566,420.787811 658.616699,425.502228 
	C650.391357,427.170654 642.141907,423.721161 634.163452,425.683807 
	C634.403809,428.080139 635.886597,429.301605 636.880310,430.797577 
	C639.735901,435.096588 642.600525,439.389648 645.438110,443.700500 
	C646.069946,444.660461 646.899353,445.659790 646.157532,446.898315 
	C645.401428,448.160950 644.182373,447.788300 643.021729,447.652161 
	C639.550476,447.244904 636.082275,446.743713 632.597534,446.534332 
	C626.790161,446.185394 620.919312,445.347321 615.086304,447.008392 
	C615.728333,449.507111 618.294434,449.427704 618.362305,451.862793 
	C614.371704,454.617828 609.311646,455.232056 604.829895,457.204010 
	C589.654114,463.881226 574.633301,470.886261 558.369995,474.807068 
	C550.789185,476.634674 544.730957,480.922882 540.235901,487.878326 
	C532.713928,499.517517 529.285461,512.334106 527.116272,525.722229 
	C526.370239,530.326843 525.253357,534.871338 524.305908,539.443359 
	C523.814880,539.497070 523.323853,539.550781 522.832825,539.604492 
	C518.263489,530.347534 516.866333,519.651184 511.322845,510.735016 
	C508.821503,511.998169 508.160736,513.934021 507.350220,515.720398 
	C502.673920,526.026978 498.019196,536.343323 493.380249,546.666809 
	C492.562531,548.486572 491.961884,550.464172 488.508972,550.652832 
	C490.469025,517.008423 496.956085,483.819916 497.024902,449.611145 
	C494.206299,450.650269 493.375763,452.931671 491.078400,452.403503 
	C489.704407,451.565247 489.626099,449.926880 489.186798,448.556458 
	C487.410156,443.014160 486.546570,436.778625 482.755829,432.447662 
	C477.521820,426.467712 476.544373,420.446899 478.644714,413.160614 
	C479.552551,410.011322 478.992523,406.701355 476.230560,404.006927 
	C470.338928,416.193115 464.683044,428.011780 458.887695,439.761627 
	C457.912018,441.739838 457.396576,444.869171 454.642120,444.751648 
	C451.955261,444.636993 451.732025,441.498108 450.782745,439.496490 
	C445.176117,427.674896 438.585999,416.331116 433.720245,403.422150 
	C428.849060,408.123627 429.766846,413.217438 431.250885,418.066803 
	C432.342529,421.633942 432.047974,424.412720 429.679688,427.314667 
	C426.602356,431.085449 425.105652,435.736084 423.082886,440.111725 
	C421.193268,444.199371 422.115997,449.394806 418.372925,452.900513 
	C416.572693,451.993500 415.124176,451.263702 412.204407,449.792603 
	C411.389343,467.516235 414.553162,484.019897 416.179565,500.593506 
	C417.815399,517.262634 419.658752,533.911438 421.411133,550.569153 
	C420.632111,550.771362 419.853088,550.973633 419.074036,551.175903 
	C411.433868,538.275635 406.090912,524.177002 399.343353,509.733765 
	C392.620758,519.063599 390.258331,529.370605 386.132385,538.897217 
	C381.846100,532.202881 382.579041,524.809265 381.097565,517.963013 
	C378.326538,505.157379 373.584869,493.543518 365.326355,483.421417 
	C362.447937,479.893494 358.736298,477.575867 354.303986,476.028534 
	C343.653931,472.310547 332.623657,469.688354 322.287048,465.082489 
	C312.887573,460.894135 303.727386,456.094116 293.463898,454.204742 
	C292.438171,454.015900 291.457001,453.671021 291.129822,452.594788 
	C290.711212,451.217712 291.579956,450.446320 292.676849,449.828003 
	C293.637238,449.286621 294.950684,448.996185 294.580597,446.961426 
	C284.318848,444.041443 273.613495,447.996338 262.226990,446.915070 
	C266.301086,438.474030 273.005585,433.391144 275.955902,425.581085 
	C267.348297,424.007721 258.963074,427.442444 250.649460,425.394714 
	C251.495728,420.726013 255.935974,419.597839 257.754089,415.182526 
	C248.604767,417.401794 240.523483,419.339661 235.259048,426.883881 
	C229.712250,434.832733 225.379532,443.454529 221.199585,452.169312 
	C217.995422,458.849762 214.431564,465.371674 212.542953,472.766724 
	C215.111450,473.015167 216.349625,471.177521 217.909103,470.116913 
	C224.102051,465.905060 230.172852,461.512878 236.388199,457.335205 
	C237.930649,456.298462 239.622192,454.105988 241.652405,455.566315 
	C243.608765,456.973480 242.221481,459.263214 241.841965,461.141693 
	C239.708115,471.703064 236.996521,482.179840 235.487961,492.827972 
	C233.195587,509.008545 232.444397,525.348938 234.172836,541.653870 
	C234.994720,549.406921 235.000107,557.370544 238.247391,565.551331 
	C242.029297,555.371887 245.376343,545.850586 249.090942,536.474915 
	C256.104431,518.772888 265.322906,502.500488 280.589203,490.440308 
	C287.470459,485.004120 295.137817,482.463257 305.223816,484.595978 
	C298.201355,491.208618 293.291840,498.041870 288.887573,505.250488 
	C288.030273,506.653564 286.544800,508.158539 287.714142,509.763977 
	C289.013672,511.548065 290.663879,510.036530 292.197479,509.551788 
	C300.119446,507.047913 308.041687,504.538544 316.016083,502.209961 
	C319.384796,501.226288 322.129791,501.701965 323.404907,505.843536 
	C324.413605,509.119873 327.284912,511.179443 330.013153,513.125427 
	C335.028564,516.702759 340.046997,520.278198 345.140472,523.742188 
	C346.410919,524.606262 347.541016,526.146301 349.709503,525.476135 
	C350.440491,519.489441 345.897369,514.482056 345.885376,508.644257 
	C348.077209,508.213226 349.369110,508.986816 350.604858,509.840942 
	C362.052338,517.753296 371.609009,527.219482 376.480469,540.689941 
	C381.199158,553.737976 381.502991,567.344055 382.274078,580.968994 
	C383.067505,594.988281 386.237488,608.594116 396.403381,618.995300 
	C408.672058,631.548035 420.348938,633.629395 434.496643,625.543396 
	C438.864136,623.047119 438.934631,620.708496 434.621185,618.517212 
	C423.157837,612.693848 415.653503,603.173401 411.151794,591.647400 
	C406.543793,579.849182 407.834961,568.338867 418.601807,560.251648 
	C426.677612,554.185730 435.599731,550.712402 445.441376,549.078735 
	C463.684570,546.050598 479.727051,550.682190 493.431793,562.983521 
	C499.969910,568.852051 501.782532,576.696716 499.740967,584.923035 
	C496.078857,599.679504 487.001740,610.651123 474.186035,618.612854 
	C472.800385,619.473633 470.908813,619.800720 471.748016,622.751831 
M587.007324,227.491501 
	C591.231445,223.828354 594.969299,219.733932 598.586182,215.407227 
	C595.676941,212.953629 592.570557,212.817078 589.749390,211.972839 
	C580.208862,209.117874 580.036377,208.767853 587.468323,201.764481 
	C593.226990,196.337906 596.745605,189.449921 601.452026,182.789429 
	C592.488037,180.436844 585.028137,186.845276 576.034729,185.226791 
	C589.430969,157.553497 608.002991,134.124603 623.103455,107.845261 
	C624.618347,109.583107 625.428223,110.229004 625.875305,111.068207 
	C631.230530,121.119362 634.279175,132.000885 637.049255,142.953354 
	C637.581970,145.059753 636.733765,147.703842 635.058411,148.880798 
	C630.616577,152.001266 630.893494,155.942352 631.917908,160.413177 
	C632.386719,162.459061 632.901062,165.249222 630.162598,165.966644 
	C626.106018,167.029358 626.952148,169.652679 627.681213,172.181595 
	C629.567200,178.723709 631.888672,185.148788 633.556946,191.741882 
	C634.521790,195.554764 635.690002,199.882294 634.797241,203.490936 
	C632.315308,213.523071 628.432251,223.124100 620.405701,230.276199 
	C618.883545,231.632462 618.295959,233.037216 618.143555,234.983719 
	C617.402649,244.445663 615.793213,253.764267 613.346069,262.943207 
	C612.362854,266.631165 611.659241,270.392731 610.743042,274.099701 
	C609.759460,278.079437 611.773987,278.807861 615.106384,278.361115 
	C617.998840,277.973328 620.431580,276.530548 622.908142,275.170258 
	C628.945801,271.854004 629.133179,272.194672 631.041321,278.749268 
	C632.467773,283.649597 631.586609,288.849426 633.247437,294.543121 
	C641.746277,284.803650 647.022217,274.428040 650.935547,263.195984 
	C652.531372,258.615601 652.440125,254.485184 650.049805,250.334274 
	C648.821777,248.201782 648.814758,245.847687 649.079468,243.518600 
	C649.736816,237.736374 650.225281,231.917191 651.257080,226.198654 
	C654.374390,208.922363 653.272217,191.701187 650.459839,174.583878 
	C646.926453,153.078461 638.789978,133.040619 629.653625,113.400566 
	C628.223755,110.326729 627.010498,106.995209 624.308594,104.689270 
	C621.771973,105.418976 620.835815,107.435440 619.608521,109.182449 
	C610.317810,122.406975 600.239563,135.000259 589.505310,147.086243 
	C574.563721,163.909302 559.899170,180.949799 551.391602,202.227829 
	C546.618286,214.166260 545.523071,226.487885 548.751465,238.896149 
	C552.488647,253.259720 560.463745,265.220276 571.132080,275.456085 
	C575.767883,279.903961 578.898132,280.266388 584.421265,276.826538 
	C587.482971,274.919739 588.769592,272.814270 585.891235,269.649811 
	C584.441528,268.056000 583.293030,266.190796 581.976196,264.472931 
	C577.725891,258.928284 577.902954,258.236633 583.576477,254.410660 
	C587.544067,251.735077 591.329346,248.788986 595.401978,245.813293 
	C591.227295,240.464951 584.062744,238.841629 581.091064,232.955872 
	C582.474487,230.433716 584.772949,229.526321 587.007324,227.491501 
M277.784058,215.582352 
	C274.890808,209.320816 272.399506,202.928650 273.996552,195.865723 
	C275.132751,190.840942 276.847382,185.946198 277.963654,180.917877 
	C278.992157,176.284958 281.675201,172.057068 281.575287,166.636230 
	C276.406891,167.227692 276.815521,163.731750 276.757660,160.460052 
	C276.683929,156.289291 277.050476,151.571838 274.167206,148.510757 
	C271.004333,145.152786 271.572418,142.093872 272.543488,138.491867 
	C274.973297,129.479050 278.731415,120.958275 282.171844,112.320747 
	C282.747528,110.875374 282.713623,108.754272 284.987305,108.699486 
	C286.812561,108.655510 287.401489,110.364525 288.158875,111.559227 
	C301.428528,132.491699 315.691040,152.805618 327.697906,174.520889 
	C329.552856,177.875717 332.041595,181.100922 332.696716,185.744232 
	C323.978882,186.322113 316.551361,181.133926 308.289215,181.604385 
	C307.876190,183.636780 309.166412,184.897781 309.909882,186.322525 
	C313.572937,193.342331 318.817139,199.125870 324.289520,204.749908 
	C327.711426,208.266647 327.200256,209.802216 322.529938,211.121109 
	C318.280518,212.321167 313.806549,212.858566 309.228882,215.228073 
	C314.234711,220.818726 319.532440,225.318878 324.898987,229.712845 
	C329.222137,233.252533 329.264465,233.581299 324.999664,236.948914 
	C321.157715,239.982697 316.495056,242.069809 313.351044,246.616440 
	C316.209442,248.485306 318.837524,250.191895 321.453827,251.916306 
	C331.404968,258.475159 331.484009,259.163391 323.762726,268.392426 
	C322.399414,270.021942 320.662140,271.671997 321.546692,274.133179 
	C323.250000,278.872498 330.958099,281.014130 334.994873,277.820984 
	C341.063477,273.020569 345.878326,267.113403 350.103546,260.645447 
	C362.600861,241.514618 365.797241,221.326263 356.951050,199.880646 
	C350.520905,184.292175 339.960419,171.310303 329.548920,158.337448 
	C317.162170,142.903442 302.934387,128.977234 291.966064,112.361923 
	C290.207520,109.697945 288.383270,106.785667 284.964386,105.415245 
	C282.805206,107.435059 281.642090,109.838356 280.508698,112.211128 
	C274.780823,124.202492 269.067688,136.192581 265.096344,148.934921 
	C259.290466,167.563553 254.988052,186.468140 255.258575,206.089203 
	C255.501633,223.718445 259.337585,241.014526 257.737549,259.006836 
	C256.688324,270.804993 264.831390,281.517700 272.290070,291.087616 
	C272.939636,291.921051 273.418060,293.241791 275.287201,292.843842 
	C276.723480,285.853485 275.857849,278.102295 280.428406,271.469055 
	C283.043610,273.127991 285.491364,274.518982 287.754364,276.164154 
	C289.790985,277.644745 292.031067,277.817230 294.382660,277.881683 
	C298.052704,277.982239 299.398376,276.158112 298.176147,272.852203 
	C293.990173,261.529968 291.906372,249.844330 291.438507,237.805923 
	C291.330811,235.035065 290.830475,232.306091 288.293457,230.239136 
	C283.711761,226.506393 280.383270,221.739899 277.784058,215.582352 
M507.507599,449.161743 
	C506.252167,457.309631 506.208832,457.400024 513.709229,460.994904 
	C517.892822,463.000031 522.346069,464.451080 526.490479,466.526062 
	C528.958801,467.761902 530.750549,467.302765 532.933472,465.994995 
	C540.631836,461.382751 548.330627,456.750671 556.236084,452.511658 
	C561.888733,449.480560 566.156067,445.331299 569.051575,439.686646 
	C573.525024,430.965881 578.165344,422.324463 582.398438,413.488220 
	C588.449036,400.858002 589.252625,402.904144 576.561951,396.842773 
	C576.112732,396.628174 575.703674,396.330048 575.255493,396.112976 
	C566.269470,391.760895 565.755066,391.571014 562.257507,400.973297 
	C555.405151,419.394318 542.321716,430.311981 523.584473,434.909058 
	C515.959595,436.779755 510.198730,440.590118 507.507599,449.161743 
M353.536652,413.880768 
	C350.605804,409.210327 348.590851,404.110992 346.520844,399.030975 
	C343.841858,392.456390 343.493713,392.274811 337.085693,395.101654 
	C333.598816,396.639862 330.296173,398.591248 326.835999,400.195740 
	C323.659332,401.668701 322.790955,403.505798 324.498169,406.871521 
	C328.631500,415.020233 332.706116,423.216431 336.349670,431.591339 
	C340.973694,442.219971 347.957214,450.403748 358.398560,455.689972 
	C364.915802,458.989502 371.222076,462.713501 377.553802,466.366943 
	C379.468414,467.471619 380.996674,467.492371 383.111420,466.618011 
	C388.661682,464.323212 393.852875,461.352203 399.232391,458.743927 
	C402.580200,457.120697 403.414154,454.642456 402.317169,451.367676 
	C399.563904,443.148560 395.536621,436.900543 385.811340,434.802216 
	C372.970184,432.031647 361.268738,426.380768 353.536652,413.880768 
M529.633728,224.330734 
	C531.555115,207.775711 537.568237,192.654465 546.039856,178.276428 
	C532.576599,186.840714 520.432495,196.591339 511.893219,209.997787 
	C506.569885,218.355362 506.793793,218.657883 513.556030,226.080734 
	C518.301819,231.290192 522.772461,236.820374 529.403625,241.967804 
	C529.251465,235.671371 528.768677,230.411789 529.633728,224.330734 
M369.932068,191.635834 
	C377.852295,206.734207 380.786957,222.995239 380.363129,239.976135 
	C383.012268,239.642426 384.030518,238.218124 385.161774,237.048035 
	C389.906921,232.140030 394.368164,226.930878 399.378113,222.314651 
	C402.900940,219.068634 402.314148,216.614731 400.046204,212.944077 
	C392.056885,200.013626 380.396149,190.919846 368.645508,181.866379 
	C366.921814,180.538315 365.093201,179.346420 363.313141,178.091522 
	C363.166656,178.308487 363.020142,178.525436 362.873657,178.742401 
	C365.113770,182.818787 367.353912,186.895172 369.932068,191.635834 
M428.021515,645.886475 
	C425.809265,645.404846 423.786041,643.242615 421.145172,644.961914 
	C436.764221,661.285217 474.180695,659.540527 488.501251,644.250671 
	C487.038422,644.494019 485.907227,644.597595 484.821228,644.876892 
	C478.580109,646.481384 472.316101,647.693298 465.857025,648.354797 
	C453.328400,649.638184 441.046600,648.680542 428.021515,645.886475 
z"/>
<path fill="#000000" opacity="1.000000" stroke="none" 
	d="
M448.690308,306.866455 
	C448.625763,289.124084 451.297089,272.121490 452.638031,254.629639 
	C456.583038,255.467957 456.930298,258.105621 456.851044,260.157074 
	C456.437866,270.851105 459.148224,281.271881 459.289795,291.927856 
	C459.413300,301.225677 461.104950,310.542633 460.738708,319.797119 
	C460.254150,332.040375 459.909332,344.359863 457.618134,356.487518 
	C457.159485,358.915253 457.395721,361.466888 457.176788,363.949493 
	C456.994141,366.020508 457.281281,368.390625 453.476379,369.864929 
	C449.345856,348.993835 447.831543,328.285339 448.690308,306.866455 
z"/>
<path fill="#000000" opacity="1.000000" stroke="none" 
	d="
M357.769104,305.908875 
	C348.707397,305.919708 341.706116,309.879700 335.054993,314.818634 
	C331.977570,317.103790 328.907288,319.562195 324.886353,320.110168 
	C324.630463,319.118713 324.377441,318.655579 324.495697,318.522583 
	C331.018921,311.188080 337.941925,304.214661 346.293823,299.010162 
	C352.317993,295.256104 364.524963,297.494873 370.899811,303.157867 
	C367.055878,306.499908 362.169495,304.352478 357.769104,305.908875 
z"/>
<path fill="#000000" opacity="1.000000" stroke="none" 
	d="
M579.388672,312.614563 
	C581.422852,315.066315 584.953369,315.755707 585.458984,319.437561 
	C581.839417,320.706512 579.650391,318.139374 577.277771,316.728729 
	C571.168213,313.096405 565.778320,308.039948 558.426086,306.915588 
	C553.512512,306.164154 548.528015,305.882233 543.579651,305.349121 
	C542.033630,305.182556 539.874207,305.814789 539.562683,303.474670 
	C539.305359,301.541687 541.237671,301.358337 542.544373,300.695984 
	C553.294006,295.247162 562.957336,295.959717 571.374329,305.342621 
	C573.691711,307.926025 576.536377,310.036438 579.388672,312.614563 
z"/>
<path fill="#000000" opacity="1.000000" stroke="none" 
	d="
M436.904846,343.776489 
	C432.167206,335.852814 427.693726,328.151245 423.052643,320.161102 
	C426.563721,318.846985 428.683350,320.310699 430.287628,321.640747 
	C436.595093,326.870026 437.979126,334.437103 439.155731,341.985046 
	C439.331116,343.110077 438.915833,344.400757 436.904846,343.776489 
z"/>
<path fill="#000000" opacity="1.000000" stroke="none" 
	d="
M479.382782,321.384216 
	C481.257568,320.655853 482.836639,320.120483 485.319183,322.247314 
	C479.532166,328.926514 475.886292,337.099335 470.757660,344.499451 
	C470.192657,335.552368 472.635834,327.826721 479.382782,321.384216 
z"/>
<path fill="#000000" opacity="1.000000" stroke="none" 
	d="
M413.518311,271.051117 
	C411.673187,263.864075 412.005249,257.531616 417.967896,252.632660 
	C419.254730,251.575409 420.625641,250.150040 422.289612,251.588409 
	C423.906036,252.985687 422.388855,254.347565 421.584991,255.468826 
	C418.526764,259.734589 417.672455,264.477966 418.007721,269.612885 
	C418.129333,271.474976 418.747192,273.645721 416.687347,275.077087 
	C414.592102,274.699493 414.757660,272.539703 413.518311,271.051117 
z"/>
<path fill="#000000" opacity="1.000000" stroke="none" 
	d="
M497.454285,262.553772 
	C497.459015,266.908234 496.747070,270.606445 492.007324,274.185516 
	C492.327637,265.692230 491.310974,258.517273 486.484955,252.343918 
	C491.671600,251.135590 494.862946,254.339951 497.454285,262.553772 
z"/>
<path fill="#000000" opacity="1.000000" stroke="none" 
	d="
M514.164368,588.513672 
	C516.005920,587.200195 517.227966,587.376831 517.643616,589.445801 
	C518.299927,592.712585 513.409973,603.075562 510.443054,604.663757 
	C509.138092,605.362366 507.722717,605.784485 505.642883,604.719360 
	C508.082794,599.170959 512.259644,594.568970 514.164368,588.513672 
z"/>
<path fill="#000000" opacity="1.000000" stroke="none" 
	d="
M402.474976,601.750610 
	C403.413879,605.705322 401.282135,605.258118 399.227875,604.321899 
	C395.985138,602.844055 391.944214,595.077881 392.374847,591.563232 
	C392.505219,590.499023 392.836792,589.566895 394.059143,589.444153 
	C395.251740,589.324463 395.837280,590.144043 396.231018,591.124390 
	C397.733063,594.864136 399.989075,598.159485 402.474976,601.750610 
z"/>
</svg>